<svg width="24" height="28" viewBox="0 0 24 28" fill="none" xmlns="http://www.w3.org/2000/svg">
<path d="M23.1867 23.8267L17.84 22.0001L16 27.3334L11.8934 19.3334L8.00002 27.3334L6.16002 22.0001L0.813354 23.8267L4.70669 15.8267C3.42669 14.2267 2.66669 12.2001 2.66669 10.0001C2.66669 7.52473 3.65002 5.15076 5.40036 3.40042C7.1507 1.65008 9.52467 0.666748 12 0.666748C14.4754 0.666748 16.8493 1.65008 18.5997 3.40042C20.35 5.15076 21.3334 7.52473 21.3334 10.0001C21.3334 12.2001 20.5734 14.2267 19.2934 15.8267L23.1867 23.8267ZM5.33335 10.0001L8.92002 11.7867L8.66669 15.7867L12 13.5734L15.3334 15.7734L15.1067 11.7867L18.6667 10.0001L15.0934 8.20008L15.3334 4.22675L12 6.41341L8.66669 4.20008L8.89335 8.21341L5.33335 10.0001Z" fill="#D77025"/>
</svg>
