<svg width="82" height="83" viewBox="0 0 82 83" fill="none" xmlns="http://www.w3.org/2000/svg">
<path d="M26.65 6.91675H55.35C66.2834 6.91675 75.1667 15.9084 75.1667 26.9751V56.0251C75.1667 61.3449 73.0789 66.4468 69.3625 70.2085C65.6462 73.9701 60.6058 76.0834 55.35 76.0834H26.65C15.7167 76.0834 6.83337 67.0917 6.83337 56.0251V26.9751C6.83337 21.6553 8.9212 16.5534 12.6375 12.7917C16.3539 9.03003 21.3943 6.91675 26.65 6.91675ZM25.9667 13.8334C22.7045 13.8334 19.576 15.1451 17.2693 17.4799C14.9626 19.8148 13.6667 22.9815 13.6667 26.2834V56.7167C13.6667 63.5988 19.1675 69.1667 25.9667 69.1667H56.0334C59.2955 69.1667 62.4241 67.8551 64.7308 65.5202C67.0375 63.1854 68.3334 60.0187 68.3334 56.7167V26.2834C68.3334 19.4013 62.8325 13.8334 56.0334 13.8334H25.9667ZM58.9375 19.0209C60.0702 19.0209 61.1565 19.4764 61.9575 20.2871C62.7584 21.0978 63.2084 22.1973 63.2084 23.3438C63.2084 24.4903 62.7584 25.5899 61.9575 26.4006C61.1565 27.2113 60.0702 27.6667 58.9375 27.6667C57.8048 27.6667 56.7185 27.2113 55.9176 26.4006C55.1167 25.5899 54.6667 24.4903 54.6667 23.3438C54.6667 22.1973 55.1167 21.0978 55.9176 20.2871C56.7185 19.4764 57.8048 19.0209 58.9375 19.0209ZM41 24.2084C45.5308 24.2084 49.876 26.0302 53.0798 29.273C56.2835 32.5158 58.0834 36.914 58.0834 41.5001C58.0834 46.0861 56.2835 50.4843 53.0798 53.7271C49.876 56.97 45.5308 58.7917 41 58.7917C36.4693 58.7917 32.124 56.97 28.9203 53.7271C25.7166 50.4843 23.9167 46.0861 23.9167 41.5001C23.9167 36.914 25.7166 32.5158 28.9203 29.273C32.124 26.0302 36.4693 24.2084 41 24.2084ZM41 31.1251C38.2816 31.1251 35.6744 32.2182 33.7522 34.1638C31.8299 36.1095 30.75 38.7485 30.75 41.5001C30.75 44.2517 31.8299 46.8906 33.7522 48.8363C35.6744 50.782 38.2816 51.8751 41 51.8751C43.7185 51.8751 46.3256 50.782 48.2479 48.8363C50.1701 46.8906 51.25 44.2517 51.25 41.5001C51.25 38.7485 50.1701 36.1095 48.2479 34.1638C46.3256 32.2182 43.7185 31.1251 41 31.1251Z" fill="#C39F00"/>
</svg>
