<svg width="24" height="28" viewBox="0 0 24 28" fill="none" xmlns="http://www.w3.org/2000/svg">
<path d="M23.1866 23.8267L17.8399 22.0001L15.9999 27.3334L11.8932 19.3334L7.9999 27.3334L6.1599 22.0001L0.813232 23.8267L4.70657 15.8267C3.42657 14.2267 2.66657 12.2001 2.66657 10.0001C2.66657 7.52473 3.6499 5.15076 5.40024 3.40042C7.15058 1.65008 9.52454 0.666748 11.9999 0.666748C14.4753 0.666748 16.8492 1.65008 18.5996 3.40042C20.3499 5.15076 21.3332 7.52473 21.3332 10.0001C21.3332 12.2001 20.5732 14.2267 19.2932 15.8267L23.1866 23.8267ZM5.33323 10.0001L8.9199 11.7867L8.66657 15.7867L11.9999 13.5734L15.3332 15.7734L15.1066 11.7867L18.6666 10.0001L15.0932 8.20008L15.3332 4.22675L11.9999 6.41341L8.66657 4.20008L8.89323 8.21341L5.33323 10.0001Z" fill="#C39F00"/>
</svg>
