<svg width="81" height="81" viewBox="0 0 81 81" fill="none" xmlns="http://www.w3.org/2000/svg">
<path d="M67.9166 10.7578C67.0389 10.7965 66.2212 11.0522 65.5013 11.3431C64.827 11.6144 62.2505 12.7194 58.1924 14.4597C54.1306 16.2016 48.7525 18.5106 43.0154 20.9777C31.5413 25.912 18.6413 31.4662 12.034 34.309C11.7855 34.4158 10.9186 34.6928 9.99841 35.4111C9.07826 36.1295 8.09998 37.618 8.09998 39.2765C8.09998 40.614 8.73736 41.9426 9.53962 42.7359C10.3419 43.5292 11.1908 43.9211 11.9179 44.2178C14.5563 45.2943 22.739 48.6428 24.2842 49.275C24.8279 50.9408 27.7897 60.0008 28.4765 62.2213C28.9293 63.6866 29.3603 64.6043 29.9215 65.3326C30.202 65.6968 30.5282 66.0159 30.9234 66.266C31.0814 66.366 31.2546 66.4429 31.4297 66.5139L31.4402 66.5191C31.4805 66.5353 31.5153 66.5628 31.5562 66.5771C31.6334 66.6041 31.685 66.6074 31.7883 66.6299C32.1995 66.7627 32.6148 66.8461 32.9853 66.8461C34.5653 66.8461 35.5324 65.976 35.5324 65.976L35.5904 65.9338L43.7168 58.9043L53.5728 68.2277C53.7116 68.4239 55.0058 70.2 57.8601 70.2C59.5549 70.2 60.8993 69.3496 61.7625 68.4439C62.6256 67.5383 63.1634 66.5869 63.392 65.3906V65.3853C63.6058 64.2549 72.689 17.6238 72.689 17.6238L72.6732 17.6871C72.9391 16.4734 73.0088 15.3431 72.7154 14.2277C72.422 13.1123 71.6489 12.0444 70.6904 11.4697C69.732 10.8952 68.7942 10.7191 67.9166 10.7578ZM67.4103 16.4004C67.3974 16.4792 67.42 16.4395 67.3998 16.5322L67.3945 16.5638L67.3892 16.5955C67.3892 16.5955 58.4185 62.6302 58.0869 64.3834C58.1112 64.251 58.0002 64.5142 57.8865 64.6734C57.7257 64.5626 57.3961 64.4203 57.3961 64.4203L57.3433 64.3623L43.8802 51.6269L34.3617 59.8535L37.1935 48.5156C37.1935 48.5156 54.8952 30.1917 55.9617 29.1252C56.8203 28.272 57.0006 27.9746 57.0006 27.6803C57.0006 27.2861 56.7951 27 56.3361 27C55.923 27 55.3675 27.4016 55.0705 27.5906C51.2011 30.0572 34.2139 39.9577 26.5992 44.3865C25.3891 43.8913 16.9821 40.45 14.1328 39.2871C14.1544 39.2776 14.1473 39.281 14.1697 39.2713C20.7788 36.4278 33.6734 30.8736 45.1459 25.94C50.8821 23.4732 56.2644 21.1625 60.3228 19.4221C64.3188 17.7084 67.0953 16.5291 67.4103 16.4004Z" fill="#C39F00"/>
</svg>
