<svg width="70" height="48" viewBox="0 0 70 48" fill="none" xmlns="http://www.w3.org/2000/svg">
<path d="M28.1667 34.2499L45.8992 23.9999L28.1667 13.7499V34.2499ZM67.6634 7.49742C68.1075 9.10325 68.415 11.2558 68.62 13.9891C68.8592 16.7224 68.9617 19.0799 68.9617 21.1299L69.1667 23.9999C69.1667 31.4824 68.62 36.9832 67.6634 40.5024C66.8092 43.5774 64.8275 45.5591 61.7525 46.4132C60.1467 46.8574 57.2084 47.1649 52.6984 47.3699C48.2567 47.6091 44.1909 47.7116 40.4325 47.7116L35 47.9166C20.6842 47.9166 11.7667 47.3699 8.24754 46.4132C5.17254 45.5591 3.19087 43.5774 2.33671 40.5024C1.89254 38.8966 1.58504 36.7441 1.38004 34.0107C1.14087 31.2774 1.03837 28.9199 1.03837 26.8699L0.833374 23.9999C0.833374 16.5174 1.38004 11.0166 2.33671 7.49742C3.19087 4.42242 5.17254 2.44075 8.24754 1.58659C9.85337 1.14242 12.7917 0.834918 17.3017 0.629918C21.7434 0.390751 25.8092 0.288252 29.5675 0.288252L35 0.083252C49.3159 0.083252 58.2334 0.629919 61.7525 1.58659C64.8275 2.44075 66.8092 4.42242 67.6634 7.49742Z" fill="#C39F00"/>
</svg>
